<?xml version="1.0" encoding="utf-8"?>
<!-- Generator: Adobe Illustrator 28.0.0, SVG Export Plug-In . SVG Version: 6.00 Build 0)  -->
<svg version="1.1" id="contents" xmlns="http://www.w3.org/2000/svg" xmlns:xlink="http://www.w3.org/1999/xlink" x="0px" y="0px"
	 viewBox="0 0 800 800" style="enable-background:new 0 0 800 800;" xml:space="preserve">
<g>
	<path d="M400,115c-157.4,0-285,127.6-285,285s127.6,285,285,285s285-127.6,285-285S557.4,115,400,115z M400,215
		c16.3,0,29.5,13.2,29.5,29.5c0,16.3-13.2,29.5-29.5,29.5c-16.3,0-29.5-13.2-29.5-29.5C370.5,228.2,383.7,215,400,215z M543.3,291.8
		l-108.4,28.9l3.8,84.7l40.4,160.7c2,8.1-2.9,16.3-11,18.4c-7.7,1.9-15.5-2.5-18-9.8L400,426.2v0v0l0,0l0,0v0v0l-50.1,148.5
		c-2.5,7.4-10.3,11.8-18,9.8c-8.1-2-13-10.3-11-18.4l40.4-160.7l3.8-84.7l-108.4-28.9c-6.4-1.7-10.6-8-9.6-14.7
		c1.1-7.2,7.8-12.1,15-11c0,0,98.1,16.2,115.6,18.6c6.7,0.9,14.8,1.1,22.2,1h0h0c7.4,0.1,15.5-0.1,22.2-1
		c17.5-2.4,115.6-18.6,115.6-18.6c7.2-1.1,13.9,3.8,15,11C553.9,283.8,549.7,290.1,543.3,291.8z"/>
</g>
</svg>
