<?xml version="1.0" encoding="UTF-8"?>
<svg id="_レイヤー_2" data-name="レイヤー 2" xmlns="http://www.w3.org/2000/svg" viewBox="0 0 14.97 14.28">
  <defs>
    <style>
      .cls-1 {
        stroke-width: 0px;
      }
    </style>
  </defs>
  <g id="_レイヤー_1-2" data-name="レイヤー 1">
    <path class="cls-1" d="m12.39,5.08v-.02s-.01,0-.01,0c0-.05,0-.1,0-.15,0-2.71-2.19-4.9-4.9-4.9S2.59,2.19,2.59,4.9c0,.05,0,.1,0,.15h-.01s0,.03,0,.03c-1.53.83-2.58,2.44-2.58,4.3,0,2.71,2.19,4.9,4.9,4.9.94,0,1.82-.28,2.57-.74l.02.02.02-.02c.75.46,1.62.74,2.57.74,2.71,0,4.9-2.19,4.9-4.9,0-1.87-1.05-3.48-2.58-4.3m-2.04-3.04c.69.69,1.12,1.63,1.17,2.67-.17-.05-.34-.1-.51-.13l-1.96-3.42c.49.21.93.5,1.3.87m1.12,3.55c-.19,1.14-.86,2.12-1.8,2.72-.22-.99-.74-1.86-1.46-2.52.56-.29,1.19-.45,1.86-.45.49,0,.96.09,1.4.25M7.49.85c.31,0,.6.04.89.1l2.03,3.55c-.11,0-.22-.01-.34-.01-.22,0-.44.02-.65.05L7.32.85c.06,0,.11,0,.17,0m-.69.06l2.13,3.72c-.26.06-.52.15-.76.26l-2.15-3.76c.25-.1.51-.17.78-.22m-1.22.42l2.16,3.77c-.08.04-.15.09-.23.13h-.02s-.02,0-.02,0c-.29-.17-.59-.33-.91-.44l-1.7-2.97c.22-.19.46-.35.72-.49m-1.07.83l1.39,2.43c-.32-.07-.65-.11-.99-.11l-.92-1.61c.15-.26.32-.5.52-.72m-.77,1.24l.64,1.11c-.32.04-.62.1-.91.19.02-.46.12-.9.28-1.31m-.23,2.18c.44-.16.9-.25,1.4-.25.67,0,1.3.16,1.86.45-.72.66-1.24,1.53-1.46,2.52-.94-.6-1.6-1.58-1.8-2.72m3.99,6.91c-.85-.71-1.4-1.74-1.45-2.92.46.14.94.23,1.45.23s.99-.08,1.45-.23c-.06,1.17-.61,2.21-1.45,2.92m5.45-.24c-.74.73-1.75,1.19-2.87,1.19-.67,0-1.3-.17-1.86-.45.97-.89,1.58-2.17,1.58-3.6,0-.05,0-.1,0-.15h.01s0-.03,0-.03c1.23-.66,2.15-1.83,2.46-3.23,1.12.72,1.86,1.98,1.86,3.41,0,1.12-.45,2.13-1.19,2.86"/>
  </g>
</svg>