<?xml version="1.0" encoding="UTF-8"?>
<svg id="_レイヤー_2" data-name="レイヤー 2" xmlns="http://www.w3.org/2000/svg" viewBox="0 0 165.65 140.9">
  <defs>
    <style>
      .cls-1 {
        stroke-width: 0px;
      }
    </style>
  </defs>
  <g id="_レイヤー_1-2" data-name="レイヤー 1">
    <g>
      <path class="cls-1" d="m35.92,8.1c-.1.08-.25.28-.53.28-.24,0-.46-.19-.54-.31-.07-.08-.38-.49-.45-.58v4.9c0,.58-.22.86-.9.86-.81,0-.81-.64-.81-.86v-4.05c-.4.39-.67.61-1.03.61-.49,0-.85-.49-.85-.96,0-.11.01-.36.26-.61.1-.08.57-.49.67-.57,1.53-1.32,2.16-2.7,2.16-2.85,0-.21-.21-.21-.31-.21h-1.78c-.63,0-.85-.28-.85-.85,0-.77.63-.77.85-.77h.88V.91c0-.65.32-.86.92-.86.72,0,.79.54.79.86v1.22h.25c.63,0,1.08.39,1.08,1.04,0,.86-.5,1.87-.93,2.56.26.32.58.68.76.86.38.38.42.42.5.57.28-.5.75-.61,1.35-.61h4.72c1,0,1.52.35,1.52,1.52v3.41c0,1.17-.51,1.5-1.52,1.5h-4.72c-.97,0-1.5-.31-1.5-1.5v-3.38Zm.42-6.18c-.32,0-.83-.06-.83-.74,0-.57.33-.75.83-.75h6.94c.31,0,.83.04.83.74,0,.57-.35.75-.83.75h-6.94Zm6.96,2.78c0,1.1-.32,1.32-1.39,1.32h-4.22c-1.07,0-1.38-.22-1.38-1.32v-.93c0-1.11.32-1.34,1.38-1.34h4.22c1.04,0,1.39.21,1.39,1.34v.93Zm-5.78,4.33h1.52v-1.21h-1.18c-.22,0-.33.11-.33.33v.88Zm1.52,2.52v-1.34h-1.52v1c0,.24.12.33.33.33h1.18Zm2.67-7.54c0-.21-.1-.33-.33-.33h-3.14c-.24,0-.33.13-.33.33v.43c0,.21.1.33.33.33h3.14c.24,0,.33-.12.33-.33v-.43Zm.35,5.02v-.88c0-.18-.08-.33-.33-.33h-1.22v1.21h1.56Zm0,1.18h-1.56v1.34h1.22c.24,0,.33-.12.33-.33v-1Z"/>
      <path class="cls-1" d="m47.32,9c-.21,0-.86,0-.86-.82,0-.71.36-.88.86-.88h2.13c.03-.28.04-.68.04-.88v-2.23h-1.95c-.25,0-.86,0-.86-.83,0-.75.47-.85.86-.85h1.95V.95c0-.24,0-.88.85-.88.75,0,.97.31.97.88v1.57h3.59V.93c0-.22,0-.86.85-.86.72,0,.96.28.96.86v1.59h1.84c.21,0,.86,0,.86.82,0,.72-.4.86-.86.86h-1.84v3.1h2.06c.25,0,.86,0,.86.83,0,.78-.49.86-.86.86h-2.06v3.38c0,.22,0,.86-.85.86-.7,0-.96-.25-.96-.86v-3.38h-3.84c-.17.81-.52,2.21-2.06,3.52-.75.63-1.11.68-1.35.68-.5,0-.95-.5-.95-.98,0-.35.18-.53.5-.77.96-.68,1.53-1.14,1.93-2.46h-1.82Zm3.99-2.56c0,.15-.03.61-.04.86h3.63v-3.1h-3.59v2.24Z"/>
      <path class="cls-1" d="m69.5,12.43c0,.29-.01.84-.84.84-.7,0-.95-.22-.95-.81v-6.36h-2.24c-.33,0-.51.17-.51.51v4.88c0,.28-.03.83-.89.83-.78,0-.9-.43-.9-.83v-5.32c0-1.36.63-1.73,1.74-1.73h2.81v-1.26h-4.84c-.25,0-.82-.02-.82-.82,0-.7.39-.85.82-.85h4.83v-.75c0-.47.25-.77.85-.77s.99.17.99.77v.75h4.87c.3,0,.81.06.81.79,0,.57-.18.88-.81.88h-4.91v1.26h2.91c1.11,0,1.72.36,1.72,1.73v4.37c0,1.61-.92,1.63-2.14,1.63-1.03,0-1.63,0-1.63-1,0-.82.51-.82.95-.82.11,0,.65,0,.74-.01.26-.06.29-.26.29-.49v-3.24c0-.36-.19-.51-.51-.51h-2.32v6.33Z"/>
      <path class="cls-1" d="m89.95,11.25c.39,0,.88.13.88.81,0,.89-.65.89-.89.89h-4.06c-1.52,0-3.81-.21-5.23-2.38-.29.71-.71,1.52-1.27,2.19-.13.15-.33.33-.68.33-.49,0-1-.42-1-.91,0-.24.05-.39.32-.75.97-1.35,1.49-2.53,1.82-4.34.1-.5.18-.85.81-.85.25,0,.96.1.96.71,0,.29-.17,1.21-.35,1.86.6,1.14,1.27,1.66,2.1,1.99v-5.13h-3.05c-.26,0-.97,0-.88-.92-.19.18-.5.18-.58.18-.58,0-.9-.18-.9-.86v-1.27c0-1.21.5-1.6,1.6-1.6h3.76v-.45c0-.51.36-.7.83-.7.54,0,.97.1.97.7v.45h3.79c1.04,0,1.6.35,1.6,1.6v1.27c0,.39-.07.86-.85.86-.1,0-.46,0-.67-.21.08.72-.32.95-.83.95h-3.08v1.79h3.55c.2,0,.85,0,.85.75,0,.57-.28.81-.85.81h-3.55v2.17c.42.06.71.06.95.06h3.94Zm-1.81-7.14c.29,0,.47.06.64.21,0-.06-.01-.11-.01-.25v-.88c0-.32-.17-.49-.47-.49h-8.16c-.32,0-.47.17-.47.49v.88c0,.1,0,.14-.01.22.11-.08.21-.18.65-.18h7.84Z"/>
      <path class="cls-1" d="m96.13,12.39c0,.21,0,.86-.82.86-.75,0-.89-.4-.89-.86v-5.73c-.18.25-.36.47-.71.47-.49,0-.92-.46-.92-1.04,0-.31.1-.5.29-.76.88-1.21,1.57-2.17,2.27-4.61.08-.29.2-.63.78-.63.14,0,.9.03.9.71,0,.4-.38,1.68-.9,2.92v8.67Zm6.08-5.51h2.21c.21,0,.86,0,.86.81s-.64.81-.86.81h-2.21v2.75h2.98c.18,0,.85,0,.85.78s-.65.81-.85.81h-7.84c-.19,0-.86,0-.86-.79s.67-.79.86-.79h3.06v-2.75h-2.28c-.2,0-.86,0-.86-.79s.65-.82.86-.82h2.28v-2.43h-2.77c-.19,0-.86,0-.86-.81s.65-.81.86-.81h7.26c.19,0,.86,0,.86.79s-.65.82-.86.82h-2.7v2.43Zm-.03-5.98c.51.27.82.47.82.92,0,.47-.38.96-.91.96-.28,0-.38-.04-1.25-.52-.22-.11-1.22-.56-1.41-.68-.17-.11-.28-.25-.28-.5,0-.39.35-.99.96-.99.51,0,1.62.57,2.06.81"/>
      <path class="cls-1" d="m111.32,12.4c0,.24,0,.86-.85.86-.78,0-.85-.51-.85-.86v-5.78c-.24.31-.42.5-.75.5-.5,0-.9-.47-.9-1.06,0-.28.07-.43.25-.68.78-1.1,1.59-2.25,2.14-4.58.11-.44.22-.75.79-.75.22,0,.54.07.74.25.14.14.18.31.18.49,0,.32-.25,1.34-.75,2.66v8.95Zm6.19-5.04h2.84c.22,0,.75,0,.75.75s-.47.76-.75.76h-2.84v2.34c.35.04.72.03.93.03h1.98c.6,0,.85.29.85.74,0,.58-.18.93-.85.93h-2.3c-.97,0-2.14-.31-2.99-.86-.57-.38-.81-.67-1.15-1.1-.25.63-.53,1.24-.95,1.82-.17.24-.36.42-.71.42-.42,0-.88-.32-.88-.79,0-.19.06-.36.24-.65.88-1.47,1.15-1.93,1.42-4.25.06-.43.11-.86.78-.86.82,0,.82.63.82.85,0,.46-.11,1.22-.21,1.67.19.4.54,1.07,1.34,1.54v-5.08h-1.61c-1.07,0-1.61-.36-1.61-1.62v-1.91c0-1.28.57-1.61,1.61-1.61h4.8c1.04,0,1.62.33,1.62,1.61v1.91c0,1.27-.56,1.62-1.62,1.62h-1.5v1.74Zm1.42-4.89c0-.31-.15-.47-.47-.47h-3.69c-.33,0-.47.18-.47.47v1.23c0,.33.19.47.47.47h3.69c.29,0,.47-.15.47-.47v-1.23Z"/>
      <path class="cls-1" d="m136.24,11.26c.54,0,.79.31.79.76,0,.54-.25.86-.82.86h-6.42c-2.06,0-2.81-.78-3.3-1.36-.18.25-.56.71-.81.97-.35.38-.56.56-.92.56-.46,0-.95-.49-.95-1.03,0-.39.17-.51.7-.96.43-.36.54-.47.89-.81v-2.87c0-.11,0-.4-.32-.4h-.43c-.42,0-.76-.22-.76-.79,0-.63.24-.89.85-.89h.78c1.29,0,1.56.29,1.56,1.56v2.69c.13,1.36,1.6,1.71,2.56,1.71h6.6ZM124.94.29c.2,0,.38,0,1.32.84,1.02.9,1.02,1.11,1.02,1.32,0,.52-.46.93-.93.93-.33,0-.43-.1-1.09-.75-.17-.17-.89-.83-1.03-.99-.1-.1-.18-.22-.18-.46,0-.35.35-.89.89-.89m7.03,1.59c.22-.33.39-.68.61-1.13.2-.4.32-.65.88-.65.39,0,.88.21.88.63,0,.22-.15.53-.49,1.16h2.07c.25,0,.84.01.84.74,0,.66-.45.75-.84.75h-2.24v.93h1.96c.25,0,.68.03.68.64,0,.53-.18.72-.68.72h-1.96v.89h1.96c.24,0,.68.01.68.65,0,.54-.22.71-.68.71h-1.96v1h2.35c.21,0,.85,0,.85.75,0,.63-.43.75-.85.75h-6.33c-1.07,0-1.52-.4-1.52-1.52v-3.87c-.29.28-.46.35-.65.35-.43,0-.88-.45-.88-.88,0-.32.1-.43.83-1.17.96-.95,1.63-2.31,1.88-2.81.11-.22.24-.47.7-.47s.95.29.95.76c0,.21-.1.43-.44,1.06h1.4Zm-2.13,2.42h2.27v-.93h-1.93c-.24,0-.33.12-.33.33v.6Zm2.27,1.36h-2.27v.89h2.27v-.89Zm0,2.25h-2.27v.67c0,.19.08.33.33.33h1.93v-1Z"/>
      <path class="cls-1" d="m17.4,138.88c0,1.06-.92,2.01-2.54,2.01-1.08,0-2.1-.37-2.5-1.32-.07-.17.03-.38.21-.45l.84-.26c.15-.05.31,0,.39.15.16.28.49.53,1.04.53s.95-.21.95-.64c0-.49-.63-.56-1.36-.74-1.3-.32-1.89-.92-1.89-2,0-1.25,1.04-1.99,2.39-1.99.98,0,1.83.45,2.19,1.26.08.18-.02.41-.22.45l-.84.21c-.14.03-.29-.03-.36-.15-.13-.23-.39-.42-.82-.42-.46,0-.78.25-.78.62,0,.51.78.63,1.28.77,1.59.44,2.05.94,2.05,1.96"/>
      <path class="cls-1" d="m25.05,134.29h1.07c.18,0,.33.15.33.33v5.83c0,.19-.15.33-.33.33h-.94c-.18,0-.33-.15-.33-.33v-3.52l-1.6,2.63c-.06.1-.17.16-.29.16h-.21c-.11,0-.22-.06-.28-.16l-1.6-2.63v3.52c0,.19-.15.33-.33.33h-.93c-.19,0-.33-.15-.33-.33v-5.83c0-.19.15-.33.33-.33h1.06c.18,0,.33.09.43.24l1.75,2.89,1.76-2.89c.09-.15.25-.24.43-.24"/>
      <path class="cls-1" d="m32.87,140.49l-.29-.93h-2.46l-.29.93c-.06.17-.21.29-.4.29h-1.01c-.17,0-.29-.17-.23-.33l2.12-5.89c.06-.16.21-.27.39-.27h1.29c.18,0,.33.11.39.27l2.11,5.89c.07.17-.06.33-.23.33h-1c-.19,0-.34-.12-.4-.29m-.67-2.12l-.85-2.71-.84,2.71h1.7Z"/>
      <path class="cls-1" d="m36.58,134.29h.93c.19,0,.33.15.33.33v5.83c0,.19-.15.33-.33.33h-.93c-.19,0-.33-.15-.33-.33v-5.83c0-.19.15-.33.33-.33"/>
      <path class="cls-1" d="m43.79,139.28c.18,0,.32.15.32.33v.83c0,.18-.15.33-.32.33h-3.36c-.18,0-.33-.15-.33-.33v-5.83c0-.19.15-.33.33-.33h.94c.18,0,.32.15.32.33v4.66h2.1Z"/>
      <path class="cls-1" d="m49.63,139.28c.19,0,.33.15.33.33v.83c0,.18-.15.33-.33.33h-3.41c-.19,0-.33-.15-.33-.33v-5.83c0-.19.15-.33.33-.33h3.33c.18,0,.33.15.33.33v.83c0,.18-.15.33-.33.33h-2.08v1.01h1.78c.18,0,.33.15.33.33v.75c0,.18-.15.33-.33.33h-1.78v1.07h2.16Z"/>
      <path class="cls-1" d="m58.88,135.78h-2.12v1.24h1.86c.19,0,.33.15.33.32v.84c0,.18-.15.32-.33.32h-1.86v1.93c0,.19-.15.33-.33.33h-.93c-.18,0-.33-.15-.33-.33v-5.83c0-.19.15-.33.33-.33h3.39c.19,0,.33.15.33.33v.83c0,.18-.15.32-.33.32"/>
      <path class="cls-1" d="m66.23,134.29c.19,0,.33.15.33.33v3.64c0,1.77-1.02,2.63-2.72,2.63s-2.71-.86-2.71-2.63v-3.64c0-.19.15-.33.32-.33h.94c.18,0,.32.15.32.33v3.47c0,.86.42,1.28,1.12,1.28s1.12-.42,1.12-1.28v-3.47c0-.19.15-.33.33-.33h.93Z"/>
      <path class="cls-1" d="m73.85,140.78h-1.15c-.14,0-.27-.06-.34-.18l-1.93-2.79v2.63c0,.19-.15.33-.33.33h-.93c-.19,0-.33-.15-.33-.33v-5.83c0-.19.15-.33.33-.33h.93c.18,0,.33.15.33.33v2.55l1.85-2.71c.08-.11.2-.18.34-.18h1.07c.2,0,.32.22.2.39l-1.96,2.75,2.12,2.97c.11.16,0,.39-.2.39"/>
      <path class="cls-1" d="m80.9,134.29c.19,0,.33.15.33.33v3.64c0,1.77-1.02,2.63-2.72,2.63s-2.71-.86-2.71-2.63v-3.64c0-.19.15-.33.32-.33h.94c.18,0,.32.15.32.33v3.47c0,.86.42,1.28,1.12,1.28s1.12-.42,1.12-1.28v-3.47c0-.19.15-.33.33-.33h.93Z"/>
      <path class="cls-1" d="m83.84,134.29h.93c.18,0,.33.15.33.33v5.83c0,.19-.15.33-.33.33h-.93c-.19,0-.33-.15-.33-.33v-5.83c0-.19.15-.33.33-.33"/>
      <path class="cls-1" d="m95.46,136.61c0,1.53-1.16,2.24-2.57,2.24h-.83v1.6c0,.19-.15.33-.32.33h-.93c-.19,0-.33-.15-.33-.33v-5.83c0-.19.15-.33.33-.33h2.09c1.61,0,2.57.93,2.57,2.33m-1.6,0c0-.5-.35-.83-.97-.83h-.83v1.66h.83c.57,0,.97-.26.97-.83"/>
      <path class="cls-1" d="m103.7,137.53c0,1.93-1.38,3.37-3.3,3.37s-3.3-1.44-3.3-3.37,1.38-3.36,3.3-3.36,3.3,1.44,3.3,3.36m-1.6,0c0-.92-.58-1.83-1.71-1.83s-1.71.91-1.71,1.83.57,1.84,1.71,1.84,1.71-.92,1.71-1.84"/>
      <path class="cls-1" d="m110.64,140.78h-1.02c-.16,0-.3-.09-.37-.23l-.97-1.95s-.07,0-.09,0h-.91v1.84c0,.18-.15.33-.33.33h-.93c-.19,0-.33-.15-.33-.33v-5.83c0-.19.15-.33.33-.33h2.16c1.65,0,2.5.94,2.5,2.25,0,.77-.38,1.36-1,1.72l1.18,2.16c.09.17-.03.37-.21.37m-3.37-3.51h.91c.46,0,.89-.19.89-.74,0-.48-.36-.75-.89-.75h-.91v1.49Z"/>
      <path class="cls-1" d="m116.96,134.62v.84c0,.18-.15.32-.33.32h-1.19v4.67c0,.19-.15.33-.33.33h-.93c-.18,0-.32-.15-.32-.33v-4.67h-1.19c-.19,0-.33-.15-.33-.32v-.84c0-.19.15-.33.33-.33h3.96c.19,0,.33.15.33.33"/>
      <path class="cls-1" d="m122.56,140.49l-.29-.93h-2.46l-.29.93c-.05.17-.21.29-.4.29h-1.01c-.17,0-.29-.17-.23-.33l2.12-5.89c.06-.16.21-.27.39-.27h1.29c.18,0,.33.11.39.27l2.12,5.89c.07.17-.06.33-.23.33h-1c-.19,0-.34-.12-.4-.29m-.67-2.12l-.85-2.71-.84,2.71h1.7Z"/>
      <path class="cls-1" d="m129.62,139.28c.18,0,.32.15.32.33v.83c0,.18-.15.33-.32.33h-3.36c-.18,0-.33-.15-.33-.33v-5.83c0-.19.15-.33.33-.33h.94c.18,0,.32.15.32.33v4.66h2.1Z"/>
      <path class="cls-1" d="m139.84,138.88c0,1.06-.92,2.01-2.54,2.01-1.08,0-2.1-.37-2.51-1.32-.07-.17.03-.38.21-.45l.84-.26c.15-.05.31,0,.39.15.16.28.49.53,1.04.53s.95-.21.95-.64c0-.49-.63-.56-1.36-.74-1.3-.32-1.89-.92-1.89-2,0-1.25,1.04-1.99,2.38-1.99.98,0,1.83.45,2.19,1.26.08.18-.02.41-.22.45l-.84.21c-.14.03-.29-.03-.36-.15-.13-.23-.39-.42-.82-.42-.46,0-.78.25-.78.62,0,.51.78.63,1.28.77,1.59.44,2.05.94,2.05,1.96"/>
      <path class="cls-1" d="m142.07,134.29h.93c.18,0,.33.15.33.33v5.83c0,.19-.15.33-.33.33h-.93c-.19,0-.33-.15-.33-.33v-5.83c0-.19.15-.33.33-.33"/>
      <path class="cls-1" d="m149.71,134.62v.84c0,.18-.15.32-.33.32h-1.19v4.67c0,.19-.15.33-.33.33h-.93c-.18,0-.32-.15-.32-.33v-4.67h-1.19c-.19,0-.33-.15-.33-.32v-.84c0-.19.15-.33.33-.33h3.96c.19,0,.33.15.33.33"/>
      <path class="cls-1" d="m155.22,139.28c.19,0,.33.15.33.33v.83c0,.18-.15.33-.33.33h-3.41c-.19,0-.33-.15-.33-.33v-5.83c0-.19.15-.33.33-.33h3.33c.18,0,.33.15.33.33v.83c0,.18-.15.33-.33.33h-2.08v1.01h1.78c.18,0,.33.15.33.33v.75c0,.18-.15.33-.33.33h-1.78v1.07h2.16Z"/>
      <path class="cls-1" d="m81.17,61.96l-2.21,3.7c-.33.56-1.09.68-1.58.26-1.83-1.55-3.37-2.75-4.61-3.61-.44-.31-1.04-.22-1.39.19-1.44,1.7-3.49,2.55-6.13,2.55-3.35,0-5.44-1.54-6.28-4.61-.1-.47-.15-.93-.15-1.37,0-1.52.57-2.82,1.7-3.9s2.58-1.62,4.33-1.62c.42,0,.85.04,1.28.11.66.12,1.27-.38,1.25-1.05-.01-.35-.02-.66-.03-.93-.01-.55-.45-.99-1-1.02l-7.96-.37c-.56-.02-1-.48-1-1.04l-.03-2.62c0-.56.43-1.03.99-1.06l7.63-.48c.58-.04,1.02-.54.98-1.12l-.07-.95c-.04-.55-.5-.98-1.05-.98h-7.09c-.56,0-1.02-.44-1.05-1l-.25-4.95c-.03-.6.44-1.1,1.04-1.1l6.8-.08c.68,0,1.17-.65,1.01-1.31l-.84-3.38c-.16-.63.29-1.25.94-1.3l5.16-.42c.6-.05,1.12.42,1.14,1.02l.14,4.43c.02.56.47,1.01,1.04,1.02l5,.07c.57,0,1.04.48,1.04,1.05v4.48c0,.54-.41,1-.95,1.05-1.18.11-2.78.28-4.8.51-.57.07-.99.58-.93,1.16.03.33.06.64.08.92.04.53.47.95,1,.97l4.74.22c.54.02.98.46,1,1.01l.12,3c.02.54-.37,1.01-.9,1.08-1.79.25-3.32.41-4.61.48-.56.03-.98.49-.99,1.05-.02,1.18-.12,2.44-.29,3.77-.06.47.18.92.61,1.11,2,.89,4.28,2.09,6.83,3.6.5.3.67.95.37,1.45m-14.11-3.69c-.85-.54-1.62-.69-2.33-.46-.74.24-1.1.71-1.06,1.42.03.91.66,1.37,1.88,1.37.57,0,1.12-.11,1.62-.33.51-.22.76-.52.76-.89s-.29-.74-.86-1.12"/>
      <path class="cls-1" d="m106.79,50.43c1.01-.22,1.7.99.99,1.75-1.45,1.55-2.23,2.39-2.34,2.54-.84.98-1.82,2.24-2.94,3.78-.39.53-1.17.6-1.62.11-2.97-3.24-4.68-9.03-5.13-17.37-.03-.54.36-1.02.9-1.1l5-.74c.64-.09,1.2.4,1.21,1.04.04,4.48.42,7.72,1.15,9.71.18.49.7.75,1.21.64l1.57-.35Zm22.48,6.52c-.11.78-.99,1.18-1.64.74-3.19-2.14-5.12-3.4-5.77-3.79-.04-.02-.08-.05-.11-.08-.83-.55-.52-1.82.46-1.92.13-.01.26-.03.39-.04.51-.05.92-.46.95-.97.02-.43.04-.86.04-1.3,0-3.22-.8-6.28-2.4-9.18-.33-.6,0-1.34.66-1.51l4.51-1.18c.53-.14,1.08.15,1.26.66,1.4,3.98,2.1,8.12,2.1,12.42,0,1.99-.15,4.03-.45,6.14"/>
      <path class="cls-1" d="m165.65,54.26c0,3.41-1.11,6.05-3.35,7.91-1.99,1.62-4.56,2.43-7.7,2.43-1.35,0-2.7-.17-4.05-.51-1.52-.34-2.7-1.05-3.55-2.13-.74-.98-1.12-2.1-1.12-3.35,0-1.66.52-2.91,1.57-3.78s2.43-1.24,4.16-1.14c.95.07,1.86.41,2.74,1.01.84.61,1.48,1.41,1.91,2.4.29.66,1.14.9,1.66.4.21-.2.41-.45.59-.75.51-.83.76-1.68.76-2.56,0-4.32-2.84-6.49-8.51-6.49-.26,0-.53,0-.8.02-.87.04-1.42-.93-.92-1.65l3.64-5.26c.5-.72-.06-1.7-.93-1.65-2.07.12-3.96.21-5.65.29-.58.02-1.08-.43-1.1-1.02l-.18-5.3c-.02-.59.46-1.09,1.06-1.09,7.38,0,12.8.04,16.27.11.8.02,1.29.89.89,1.58-1.65,2.87-3.7,5.96-6.15,9.27-.45.61-.14,1.5.6,1.65,2.02.43,3.77,1.33,5.24,2.7,1.96,1.86,2.94,4.16,2.94,6.89m-12.87,4.66c-.3-1.05-.85-1.57-1.62-1.57-.37,0-.68.13-.94.41-.25.27-.35.57-.28.91.1.58.51.93,1.22,1.07.51.03.91-.05,1.22-.25s.44-.39.41-.56"/>
      <path class="cls-1" d="m15.47,35.97c-1.41,2.95-3.02,5.36-4.84,7.23-.2.2-.31.47-.3.76l.66,20.52c.02.59-.46,1.09-1.05,1.09h-3.36c-.59,0-1.07-.49-1.05-1.08l.42-15.78c.02-.81-.83-1.32-1.55-.95-.85.44-1.89.78-3.14,1.03-.98.19-1.66-.95-1.01-1.72,4.81-5.71,7.82-10.4,9.02-14.06.2-.62.9-.91,1.48-.61l4.25,2.19c.5.26.72.88.47,1.38m17.28,23.24l-5.85-.12c-.59-.01-1.05-.5-1.03-1.08l.09-2.75c.02-.58-.44-1.06-1.02-1.08-1.28-.04-2.6-.12-3.98-.24-.56-.05-.99-.53-.97-1.09l.14-3.95c.02-.55.47-1,1.02-1.02,1.74-.06,3.09-.11,4.04-.16.58-.03,1.03-.53.99-1.11l-.13-2.17c-.03-.55-.49-.98-1.04-.99-2.72-.04-4.92-.12-6.61-.26-.53-.04-.94-.47-.96-1l-.21-4.59c-.03-.59.44-1.09,1.03-1.1l21.8-.46c.6-.01,1.09.47,1.07,1.07l-.11,5.54c-.01.55-.44,1-.99,1.03-2.62.15-4.69.21-6.22.18-.55-.01-1.01.4-1.07.94l-.23,2.27c-.07.64.45,1.18,1.09,1.16l3.77-.16c.6-.03,1.1.45,1.1,1.05v3.92c0,.57-.45,1.03-1.01,1.05l-3.71.13c-.56.02-1.01.48-1.01,1.04l-.04,2.86s0,.06,0,.09l.07,1.01Zm-.09-27.49l-2.9,2.34c-.46.37-1.14.29-1.5-.18-1.02-1.32-1.96-2.48-2.82-3.47-.39-.46-.32-1.15.16-1.52l2.97-2.26c.45-.34,1.08-.27,1.44.16,1.17,1.38,2.11,2.54,2.82,3.49.34.45.25,1.09-.19,1.44"/>
      <path class="cls-1" d="m29.65,68.87c-7.78,0-13.03-3.56-15-5.16-.48-.39-.51-1.11-.08-1.55l3.03-3.06c.37-.38.96-.42,1.38-.09,1.47,1.13,5.16,3.47,10.66,3.47s8.92-2.42,10.31-3.59c.4-.34.99-.33,1.38.03l3.19,2.89c.46.42.47,1.14,0,1.56-1.9,1.71-7.02,5.51-14.88,5.51"/>
      <path class="cls-1" d="m34.03,104.66c-1.55,1.38-2.9,2.61-4.03,3.69-.44.42-1.13.38-1.52-.09l-2.69-3.19c-.38-.45-.32-1.12.14-1.49l4.13-3.4c.43-.36,1.07-.31,1.45.11l2.61,2.88c.39.43.35,1.11-.08,1.5m20.07-21.67c-1.07,2.74-1.99,4.97-2.76,6.69-.43.95-1.82.76-2-.27-.11-.68-.22-1.25-.33-1.73-.11-.47-.52-.81-1.01-.83-4.73-.13-8.59-.42-11.58-.87-.58-.09-.97-.62-.88-1.2l.8-5.17c.09-.57.63-.97,1.21-.88,6.65,1.04,11.92,1.99,15.8,2.86.63.14.98.81.75,1.41m-8.21,31.53c-1.56-1.31-2.91-2.39-4.05-3.27-.8-.61-.36-1.89.64-1.88.01,0,.03,0,.04,0,.52,0,.96-.38,1.05-.9.15-.82.22-1.63.22-2.45,0-3.11-1.03-5.81-3.08-8.08-.4-.45-.34-1.14.13-1.51l2.9-2.33c.36-.29.89-.32,1.26-.04,3.22,2.38,4.83,5.76,4.83,10.14,0,3.19-.76,6.5-2.29,9.92-.29.65-1.11.85-1.65.39m18.55-10.17l-2.42,3.05c-.37.47-1.06.53-1.52.14-2.27-1.97-3.96-3.39-5.05-4.25-.46-.37-.53-1.04-.15-1.49l2.32-2.8c.35-.43.99-.51,1.43-.18,1.8,1.31,3.55,2.67,5.25,4.08.44.37.51,1.02.15,1.47"/>
      <path class="cls-1" d="m98.51,106.5l-4.62,6.05c-.38.49-1.1.55-1.56.13-7.09-6.55-13.01-11.71-17.77-15.46-.51-.41-.53-1.19-.03-1.62,8.17-7.17,13.94-12.15,17.31-14.94.46-.38,1.14-.3,1.51.18l3.09,4.09c.36.47.25,1.16-.24,1.5-5.53,3.9-9.43,6.61-11.69,8.13-.62.42-.62,1.33,0,1.75,4.39,2.93,8.96,5.82,13.7,8.65.54.32.68,1.04.3,1.54"/>
      <path class="cls-1" d="m122.97,99.86c1.01-.22,1.7.99.99,1.75-1.45,1.55-2.23,2.39-2.34,2.54-.84.98-1.82,2.24-2.94,3.78-.39.53-1.17.6-1.62.11-2.97-3.24-4.68-9.03-5.13-17.37-.03-.54.36-1.02.9-1.1l5-.74c.64-.09,1.2.4,1.21,1.04.04,4.48.42,7.72,1.15,9.71.18.49.7.75,1.21.64l1.57-.35Zm22.48,6.52c-.11.78-.99,1.18-1.64.74-3.19-2.14-5.12-3.4-5.77-3.79-.04-.02-.08-.05-.11-.08-.83-.55-.52-1.82.46-1.92.13-.01.26-.03.39-.04.51-.05.92-.46.95-.97.02-.43.04-.86.04-1.3,0-3.22-.8-6.28-2.4-9.18-.33-.6,0-1.34.66-1.51l4.51-1.18c.53-.14,1.08.15,1.26.66,1.4,3.98,2.1,8.12,2.1,12.42,0,1.99-.15,4.03-.45,6.14"/>
    </g>
  </g>
</svg>