<?xml version="1.0" encoding="UTF-8"?>
<svg id="_レイヤー_2" data-name="レイヤー 2" xmlns="http://www.w3.org/2000/svg" viewBox="0 0 165.65 140.76">
  <defs>
    <style>
      .cls-1 {
        stroke-width: 0px;
      }
    </style>
  </defs>
  <g id="_レイヤー_1-2" data-name="レイヤー 1">
    <g>
      <g>
        <path class="cls-1" d="m35.61,2.67l.61.36c-.04.06-.1.11-.18.13-.43,1.13-1.07,2.23-1.8,3.21.57.43,1.7,1.36,2.02,1.61l-.54.83c-.32-.38-1.04-1.04-1.61-1.56v5.73h-.92v-5.34c-.54.58-1.11,1.11-1.68,1.53-.1-.25-.35-.65-.5-.82,1.5-1.04,3.09-2.88,3.95-4.79h-3.73v-.86h1.96V.07l1.18.07c-.01.1-.08.17-.26.19v2.38h1.34l.17-.04Zm.47-2.12h7.88v.82h-7.88v-.82Zm.31,12.44v-6.18h7.15v6.12h-.92v-.61h-5.34v.67h-.89Zm.82-10.6h5.54v3.41h-5.54v-3.41Zm2.27,5.25h-2.2v1.53h2.2v-1.53Zm-2.2,3.88h2.2v-1.56h-2.2v1.56Zm4.59-6.48v-1.88h-3.81v1.88h3.81Zm.75,4.13v-1.53h-2.27v1.53h2.27Zm-2.27,2.35h2.27v-1.56h-2.27v1.56Z"/>
        <path class="cls-1" d="m59.34,7.6v.93h-3.27v4.47h-.96v-4.47h-4.33c-.31,1.8-1.11,3.38-3.06,4.62-.15-.21-.49-.54-.74-.7,1.73-1.07,2.49-2.42,2.81-3.92h-3.05v-.93h3.2c.07-.6.08-1.21.08-1.84v-1.81h-2.83v-.93h2.83V.13l1.24.08c-.01.1-.1.17-.29.19v2.62h4.13V.11l1.24.08c-.01.1-.1.17-.28.19v2.63h2.94v.93h-2.94v3.65h3.27Zm-8.36-1.82c0,.63-.01,1.22-.07,1.82h4.2v-3.65h-4.13v1.82Z"/>
        <path class="cls-1" d="m74.95,2.05v.92h-5.83s.21.01.21.01c-.01.1-.1.17-.28.19v1.8h4.56v5.02c0,1.1-.45,1.18-3.06,1.18-.04-.28-.21-.67-.33-.93,1,.03,1.85.03,2.12.03.25-.03.32-.08.32-.28v-4.11h-3.6v7.15h-.97v-7.15h-3.38v5.34h-.95v-6.26h4.33v-2h-5.79v-.92h5.79V0l1.27.07c-.01.11-.1.18-.29.21v1.77h5.9Z"/>
        <path class="cls-1" d="m84.63,8.64v3.03c.74.14,1.54.18,2.42.18.49,0,2.94,0,3.58-.01-.15.24-.32.67-.36.95h-3.26c-2.99,0-5.16-.51-6.46-3.01-.5,1.36-1.21,2.5-2.18,3.27-.15-.18-.49-.46-.71-.61,1.53-1.13,2.34-3.26,2.66-5.86l1.2.19c-.03.1-.11.17-.28.17-.08.56-.19,1.1-.32,1.63.58,1.56,1.53,2.39,2.76,2.84v-6.12h-3.55v-.89h8.18v.89h-3.67v2.46h4.27v.89h-4.27Zm-5.37-6v2.1h-.92V1.75h5.32V.04l1.27.08c-.01.1-.1.17-.29.19v1.43h5.37v2.99h-.96v-2.1h-9.78Z"/>
        <path class="cls-1" d="m94.9,4.98c-.53.88-1.11,1.66-1.7,2.32-.1-.22-.33-.65-.49-.88,1.34-1.45,2.67-3.85,3.48-6.26l1.11.38c-.06.1-.15.14-.32.13-.36.97-.79,1.95-1.28,2.88l.38.1c-.03.08-.1.15-.28.17v9.23h-.9V4.98Zm7.03,6.62h4.04v.89h-9.14v-.89h4.16v-3.7h-3.31v-.89h3.31v-3.23h-3.79v-.89h4.98c-.65-.64-1.99-1.59-3.03-2.2l.61-.67c1.07.61,2.45,1.52,3.12,2.16l-.61.71h3.51v.89h-3.84v3.23h3.41v.89h-3.41v3.7Z"/>
        <path class="cls-1" d="m110.05,4.98c-.53.88-1.11,1.66-1.7,2.32-.1-.22-.33-.65-.49-.88,1.34-1.45,2.67-3.85,3.48-6.26l1.11.38c-.06.1-.15.14-.32.13-.36.97-.79,1.95-1.28,2.88l.38.1c-.03.08-.1.15-.28.17v9.23h-.9V4.98Zm7.04,3.63v3.15c.5.1,1.04.13,1.61.13.33,0,2.13,0,2.59-.01-.14.22-.28.65-.32.9h-2.32c-2.24,0-3.94-.47-4.97-2.8-.36,1.25-.9,2.31-1.67,3.03-.17-.17-.47-.42-.7-.54,1.28-1.17,1.84-3.37,2.03-5.97l1.15.17c-.03.11-.12.17-.28.18-.06.63-.14,1.24-.24,1.82.46,1.54,1.21,2.37,2.16,2.8v-5.83h-3.21V.72h7.53v4.91h-3.37v2.12h3.67v.86h-3.67Zm-3.27-7.01v3.16h5.71V1.6h-5.71Z"/>
        <path class="cls-1" d="m126.73,5.64v4.58c1.09,1.66,3.12,1.66,5.73,1.66,1.53,0,3.31-.03,4.4-.1-.11.21-.26.64-.29.92-.96.03-2.49.06-3.87.06-3.06,0-4.98,0-6.36-1.73-.64.63-1.29,1.24-1.84,1.71.01.11-.01.17-.11.22l-.54-.99c.6-.45,1.32-1.06,1.98-1.66v-3.79h-1.84v-.89h2.74Zm-1.86-5.22c.88.65,1.86,1.63,2.3,2.32l-.77.58c-.4-.71-1.38-1.71-2.25-2.39l.72-.51Zm3.85,10.52v-6.53c-.39.54-.82,1.02-1.25,1.42-.15-.18-.46-.5-.65-.67,1.28-1.11,2.45-3.06,3.15-5.08l1.14.35c-.04.1-.15.15-.32.14-.24.64-.51,1.27-.83,1.88h2.27c.35-.68.71-1.61.93-2.27l1.14.33c-.03.08-.14.14-.29.14-.22.51-.54,1.21-.86,1.8h3.31v.82h-3.33v1.49h2.87v.81h-2.87v1.52h2.84v.79h-2.84v1.56h3.56v.82h-7.06v.68h-.9Zm3.51-6.18v-1.49h-2.6v1.49h2.6Zm0,2.32v-1.52h-2.6v1.52h2.6Zm0,2.35v-1.56h-2.6v1.56h2.6Z"/>
      </g>
      <g>
        <path class="cls-1" d="m15.99,134.46c-.2-.13-.65-.32-1.24-.32-.98,0-1.35.6-1.35,1.11,0,.7.43,1.05,1.37,1.45,1.14.48,1.73,1.07,1.73,2.08,0,1.12-.82,1.99-2.34,1.99-.64,0-1.34-.19-1.69-.45l.21-.64c.38.25.95.44,1.52.44.95,0,1.5-.51,1.5-1.27,0-.7-.38-1.12-1.3-1.49-1.07-.4-1.79-1.02-1.79-1.99,0-1.08.87-1.86,2.16-1.86.67,0,1.18.17,1.45.33l-.23.64Z"/>
        <path class="cls-1" d="m25.55,140.65h-.76l-.18-3.18c-.06-1.01-.13-2.32-.12-3.04h-.03c-.23.8-.52,1.67-.86,2.65l-1.26,3.54h-.57l-1.18-3.47c-.34-1.02-.61-1.91-.81-2.73h-.03c-.02.86-.07,2.03-.14,3.12l-.19,3.11h-.73l.49-7.07h.95l1.24,3.59c.3.88.53,1.63.71,2.37h.03c.18-.71.42-1.46.73-2.37l1.29-3.59h.96l.45,7.07Z"/>
        <path class="cls-1" d="m32.96,140.65h-.82l-.76-2.29h-2.46l-.74,2.29h-.79l2.34-7.07h.89l2.34,7.07Zm-1.73-2.9l-.7-2.1c-.15-.48-.27-.93-.36-1.35h-.03c-.09.43-.22.87-.35,1.32l-.71,2.12h2.14Z"/>
        <path class="cls-1" d="m34.96,133.58h.77v7.07h-.77v-7.07Z"/>
        <path class="cls-1" d="m42.17,140.65h-3.69v-7.07h.77v6.41h2.92v.66Z"/>
        <path class="cls-1" d="m47.82,140.65h-3.73v-7.07h3.57v.65h-2.8v2.39h2.63v.64h-2.63v2.74h2.96v.65Z"/>
        <path class="cls-1" d="m52.97,140.65v-7.07h3.56v.65h-2.79v2.51h2.57v.64h-2.57v3.27h-.77Z"/>
        <path class="cls-1" d="m63.66,137.81c0,2.12-1.09,2.95-2.5,2.95-1.32,0-2.37-.77-2.37-2.9v-4.27h.77v4.28c0,1.6.71,2.25,1.63,2.25,1.02,0,1.7-.69,1.7-2.25v-4.28h.77v4.22Z"/>
        <path class="cls-1" d="m71.03,140.65h-.91l-2.31-3.54-.66.77v2.77h-.77v-7.07h.77v3.45h.04c.18-.27.37-.53.55-.76l2.15-2.69h.95l-2.49,3.01,2.68,4.06Z"/>
        <path class="cls-1" d="m77.46,137.81c0,2.12-1.09,2.95-2.5,2.95-1.32,0-2.37-.77-2.37-2.9v-4.27h.77v4.28c0,1.6.71,2.25,1.63,2.25,1.02,0,1.7-.69,1.7-2.25v-4.28h.77v4.22Z"/>
        <path class="cls-1" d="m80.18,133.58h.77v7.07h-.77v-7.07Z"/>
        <path class="cls-1" d="m86.55,133.68c.41-.07.95-.14,1.6-.14,2.28,0,2.47,1.47,2.47,2.02,0,1.66-1.33,2.25-2.58,2.25-.27,0-.51,0-.72-.06v2.9h-.77v-6.98Zm.77,3.43c.19.06.45.07.74.07,1.11,0,1.79-.56,1.79-1.57s-.72-1.46-1.69-1.46c-.39,0-.68.04-.84.07v2.88Z"/>
        <path class="cls-1" d="m98.51,137.05c0,2.49-1.39,3.71-3.06,3.71-1.75,0-3-1.38-3-3.59s1.31-3.7,3.08-3.7,2.98,1.45,2.98,3.58Zm-5.25.1c0,1.5.78,2.97,2.22,2.97s2.23-1.42,2.23-3.03c0-1.42-.7-2.98-2.21-2.98s-2.24,1.54-2.24,3.04Z"/>
        <path class="cls-1" d="m103.53,137.27c.55.18.87.71,1.04,1.48.22,1.02.38,1.64.52,1.91h-.8c-.11-.2-.27-.83-.45-1.71-.2-.98-.59-1.42-1.43-1.42h-.86v3.13h-.77v-6.97c.44-.09,1.05-.15,1.6-.15.92,0,1.52.19,1.94.58.33.31.53.79.53,1.32,0,.94-.57,1.54-1.32,1.81v.03Zm-1.08-.33c.98,0,1.61-.56,1.61-1.41,0-1.05-.79-1.37-1.65-1.37-.42,0-.71.04-.87.07v2.71h.91Z"/>
        <path class="cls-1" d="m111.16,134.24h-2.09v6.41h-.77v-6.41h-2.08v-.65h4.94v.65Z"/>
        <path class="cls-1" d="m117.41,140.65h-.82l-.76-2.29h-2.46l-.74,2.29h-.79l2.34-7.07h.89l2.34,7.07Zm-1.73-2.9l-.7-2.1c-.15-.48-.27-.93-.36-1.35h-.03c-.09.43-.22.87-.35,1.32l-.71,2.12h2.14Z"/>
        <path class="cls-1" d="m123.1,140.65h-3.69v-7.07h.77v6.41h2.92v.66Z"/>
        <path class="cls-1" d="m131.26,134.46c-.2-.13-.65-.32-1.24-.32-.98,0-1.35.6-1.35,1.11,0,.7.43,1.05,1.37,1.45,1.14.48,1.73,1.07,1.73,2.08,0,1.12-.82,1.99-2.34,1.99-.64,0-1.34-.19-1.69-.45l.21-.64c.38.25.95.44,1.52.44.95,0,1.5-.51,1.5-1.27,0-.7-.38-1.12-1.3-1.49-1.07-.4-1.79-1.02-1.79-1.99,0-1.08.87-1.86,2.16-1.86.67,0,1.18.17,1.45.33l-.23.64Z"/>
        <path class="cls-1" d="m134.16,133.58h.77v7.07h-.77v-7.07Z"/>
        <path class="cls-1" d="m141.58,134.24h-2.09v6.41h-.77v-6.41h-2.08v-.65h4.94v.65Z"/>
        <path class="cls-1" d="m147,140.65h-3.73v-7.07h3.57v.65h-2.8v2.39h2.63v.64h-2.63v2.74h2.96v.65Z"/>
      </g>
      <g>
        <path class="cls-1" d="m81.17,61.83l-2.21,3.7c-.33.56-1.09.68-1.58.26-1.83-1.55-3.37-2.75-4.61-3.61-.44-.31-1.04-.22-1.39.19-1.44,1.7-3.49,2.55-6.13,2.55-3.35,0-5.44-1.54-6.28-4.61-.1-.47-.15-.93-.15-1.37,0-1.52.57-2.82,1.7-3.9s2.58-1.62,4.33-1.62c.42,0,.85.04,1.28.11.66.12,1.27-.38,1.25-1.05-.01-.35-.02-.66-.03-.93-.01-.55-.45-.99-1-1.02l-7.96-.37c-.56-.02-1-.48-1-1.04l-.03-2.62c0-.56.43-1.03.99-1.06l7.63-.48c.58-.04,1.02-.54.98-1.12l-.07-.95c-.04-.55-.5-.98-1.05-.98h-7.09c-.56,0-1.02-.44-1.05-1l-.25-4.95c-.03-.6.44-1.1,1.04-1.1l6.8-.08c.68,0,1.17-.65,1.01-1.31l-.84-3.38c-.16-.63.29-1.25.94-1.3l5.16-.42c.6-.05,1.12.42,1.14,1.02l.14,4.43c.02.56.47,1.01,1.04,1.02l5,.07c.57,0,1.04.48,1.04,1.05v4.48c0,.54-.41,1-.95,1.05-1.18.11-2.78.28-4.8.51-.57.07-.99.58-.93,1.16.03.33.06.64.08.92.04.53.47.95,1,.97l4.74.22c.54.02.98.46,1,1.01l.12,3c.02.54-.37,1.01-.9,1.08-1.79.25-3.32.41-4.61.48-.56.03-.98.49-.99,1.05-.02,1.18-.12,2.44-.29,3.77-.06.47.18.92.61,1.11,2,.89,4.28,2.09,6.83,3.6.5.3.67.95.37,1.45m-14.11-3.69c-.85-.54-1.62-.69-2.33-.46-.74.24-1.1.71-1.06,1.42.03.91.66,1.37,1.88,1.37.57,0,1.12-.11,1.62-.33.51-.22.76-.52.76-.89s-.29-.74-.86-1.12"/>
        <path class="cls-1" d="m106.79,50.31c1.01-.22,1.7.99.99,1.75-1.45,1.55-2.23,2.39-2.34,2.54-.84.98-1.82,2.24-2.94,3.78-.39.53-1.17.6-1.62.11-2.97-3.24-4.68-9.03-5.13-17.37-.03-.54.36-1.02.9-1.1l5-.74c.64-.09,1.2.4,1.21,1.04.04,4.48.42,7.72,1.15,9.71.18.49.7.75,1.21.64l1.57-.35Zm22.48,6.52c-.11.78-.99,1.18-1.64.74-3.19-2.14-5.12-3.4-5.77-3.79-.04-.02-.08-.05-.11-.08-.83-.55-.52-1.82.46-1.92.13-.01.26-.03.39-.04.51-.05.92-.46.95-.97.02-.43.04-.86.04-1.3,0-3.22-.8-6.28-2.4-9.18-.33-.6,0-1.34.66-1.51l4.51-1.18c.53-.14,1.08.15,1.26.66,1.4,3.98,2.1,8.12,2.1,12.42,0,1.99-.15,4.03-.45,6.14"/>
        <path class="cls-1" d="m165.65,54.14c0,3.41-1.11,6.05-3.35,7.91-1.99,1.62-4.56,2.43-7.7,2.43-1.35,0-2.7-.17-4.05-.51-1.52-.34-2.7-1.05-3.55-2.13-.74-.98-1.12-2.1-1.12-3.35,0-1.66.52-2.91,1.57-3.78s2.43-1.24,4.16-1.14c.95.07,1.86.41,2.74,1.01.84.61,1.48,1.41,1.91,2.4.29.66,1.14.9,1.66.4.21-.2.41-.45.59-.75.51-.83.76-1.68.76-2.56,0-4.32-2.84-6.49-8.51-6.49-.26,0-.53,0-.8.02-.87.04-1.42-.93-.92-1.65l3.64-5.26c.5-.72-.06-1.7-.93-1.65-2.07.12-3.96.21-5.65.29-.58.02-1.08-.43-1.1-1.02l-.18-5.3c-.02-.59.46-1.09,1.06-1.09,7.38,0,12.8.04,16.27.11.8.02,1.29.89.89,1.58-1.65,2.87-3.7,5.96-6.15,9.27-.45.61-.14,1.5.6,1.65,2.02.43,3.77,1.33,5.24,2.7,1.96,1.86,2.94,4.16,2.94,6.89m-12.87,4.66c-.3-1.05-.85-1.57-1.62-1.57-.37,0-.68.13-.94.41-.25.27-.35.57-.28.91.1.58.51.93,1.22,1.07.51.03.91-.05,1.22-.25s.44-.39.41-.56"/>
        <path class="cls-1" d="m15.47,35.85c-1.41,2.95-3.02,5.36-4.84,7.23-.2.2-.31.47-.3.76l.66,20.52c.02.59-.46,1.09-1.05,1.09h-3.36c-.59,0-1.07-.49-1.05-1.08l.42-15.78c.02-.81-.83-1.32-1.55-.95-.85.44-1.89.78-3.14,1.03-.98.19-1.66-.95-1.01-1.72,4.81-5.71,7.82-10.4,9.02-14.06.2-.62.9-.91,1.48-.61l4.25,2.19c.5.26.72.88.47,1.38m17.28,23.24l-5.85-.12c-.59-.01-1.05-.5-1.03-1.08l.09-2.75c.02-.58-.44-1.06-1.02-1.08-1.28-.04-2.6-.12-3.98-.24-.56-.05-.99-.53-.97-1.09l.14-3.95c.02-.55.47-1,1.02-1.02,1.74-.06,3.09-.11,4.04-.16.58-.03,1.03-.53.99-1.11l-.13-2.17c-.03-.55-.49-.98-1.04-.99-2.72-.04-4.92-.12-6.61-.26-.53-.04-.94-.47-.96-1l-.21-4.59c-.03-.59.44-1.09,1.03-1.1l21.8-.46c.6-.01,1.09.47,1.07,1.07l-.11,5.54c-.01.55-.44,1-.99,1.03-2.62.15-4.69.21-6.22.18-.55-.01-1.01.4-1.07.94l-.23,2.27c-.07.64.45,1.18,1.09,1.16l3.77-.16c.6-.03,1.1.45,1.1,1.05v3.92c0,.57-.45,1.03-1.01,1.05l-3.71.13c-.56.02-1.01.48-1.01,1.04l-.04,2.86s0,.06,0,.09l.07,1.01Zm-.09-27.49l-2.9,2.34c-.46.37-1.14.29-1.5-.18-1.02-1.32-1.96-2.48-2.82-3.47-.39-.46-.32-1.15.16-1.52l2.97-2.26c.45-.34,1.08-.27,1.44.16,1.17,1.38,2.11,2.54,2.82,3.49.34.45.25,1.09-.19,1.44"/>
        <path class="cls-1" d="m29.65,68.74c-7.78,0-13.03-3.56-15-5.16-.48-.39-.51-1.11-.08-1.55l3.03-3.06c.37-.38.96-.42,1.38-.09,1.47,1.13,5.16,3.47,10.66,3.47s8.92-2.42,10.31-3.59c.4-.34.99-.33,1.38.03l3.19,2.89c.46.42.47,1.14,0,1.56-1.9,1.71-7.02,5.51-14.88,5.51"/>
        <path class="cls-1" d="m34.03,104.53c-1.55,1.38-2.9,2.61-4.03,3.69-.44.42-1.13.38-1.52-.09l-2.69-3.19c-.38-.45-.32-1.12.14-1.49l4.13-3.4c.43-.36,1.07-.31,1.45.11l2.61,2.88c.39.43.35,1.11-.08,1.5m20.07-21.67c-1.07,2.74-1.99,4.97-2.76,6.69-.43.95-1.82.76-2-.27-.11-.68-.22-1.25-.33-1.73-.11-.47-.52-.81-1.01-.83-4.73-.13-8.59-.42-11.58-.87-.58-.09-.97-.62-.88-1.2l.8-5.17c.09-.57.63-.97,1.21-.88,6.65,1.04,11.92,1.99,15.8,2.86.63.14.98.81.75,1.41m-8.21,31.53c-1.56-1.31-2.91-2.39-4.05-3.27-.8-.61-.36-1.89.64-1.88.01,0,.03,0,.04,0,.52,0,.96-.38,1.05-.9.15-.82.22-1.63.22-2.45,0-3.11-1.03-5.81-3.08-8.08-.4-.45-.34-1.14.13-1.51l2.9-2.33c.36-.29.89-.32,1.26-.04,3.22,2.38,4.83,5.76,4.83,10.14,0,3.19-.76,6.5-2.29,9.92-.29.65-1.11.85-1.65.39m18.55-10.17l-2.42,3.05c-.37.47-1.06.53-1.52.14-2.27-1.97-3.96-3.39-5.05-4.25-.46-.37-.53-1.04-.15-1.49l2.32-2.8c.35-.43.99-.51,1.43-.18,1.8,1.31,3.55,2.67,5.25,4.08.44.37.51,1.02.15,1.47"/>
        <path class="cls-1" d="m98.51,106.38l-4.62,6.05c-.38.49-1.1.55-1.56.13-7.09-6.55-13.01-11.71-17.77-15.46-.51-.41-.53-1.19-.03-1.62,8.17-7.17,13.94-12.15,17.31-14.94.46-.38,1.14-.3,1.51.18l3.09,4.09c.36.47.25,1.16-.24,1.5-5.53,3.9-9.43,6.61-11.69,8.13-.62.42-.62,1.33,0,1.75,4.39,2.93,8.96,5.82,13.7,8.65.54.32.68,1.04.3,1.54"/>
        <path class="cls-1" d="m122.97,99.74c1.01-.22,1.7.99.99,1.75-1.45,1.55-2.23,2.39-2.34,2.54-.84.98-1.82,2.24-2.94,3.78-.39.53-1.17.6-1.62.11-2.97-3.24-4.68-9.03-5.13-17.37-.03-.54.36-1.02.9-1.1l5-.74c.64-.09,1.2.4,1.21,1.04.04,4.48.42,7.72,1.15,9.71.18.49.7.75,1.21.64l1.57-.35Zm22.48,6.52c-.11.78-.99,1.18-1.64.74-3.19-2.14-5.12-3.4-5.77-3.79-.04-.02-.08-.05-.11-.08-.83-.55-.52-1.82.46-1.92.13-.01.26-.03.39-.04.51-.05.92-.46.95-.97.02-.43.04-.86.04-1.3,0-3.22-.8-6.28-2.4-9.18-.33-.6,0-1.34.66-1.51l4.51-1.18c.53-.14,1.08.15,1.26.66,1.4,3.98,2.1,8.12,2.1,12.42,0,1.99-.15,4.03-.45,6.14"/>
      </g>
    </g>
  </g>
</svg>