<?xml version="1.0" encoding="UTF-8"?>
<svg id="_レイヤー_2" data-name="レイヤー 2" xmlns="http://www.w3.org/2000/svg" viewBox="0 0 206.98 64.04">
  <defs>
    <style>
      .cls-1 {
        fill: none;
        stroke: #231815;
        stroke-linejoin: round;
        stroke-width: .75px;
      }

      .cls-2 {
        fill: #1baf78;
      }

      .cls-2, .cls-3 {
        stroke-width: 0px;
      }

      .cls-3, .cls-4 {
        fill: #231815;
      }

      .cls-5 {
        letter-spacing: .11em;
      }

      .cls-6 {
        letter-spacing: 0em;
      }

      .cls-4 {
        font-family: VDL-LogoG-Regular-90ms-RKSJ-H, VDL-LogoG;
        font-size: 39.09px;
      }
    </style>
  </defs>
  <g id="_レイヤー_1-2" data-name="レイヤー 1">
    <g>
      <text class="cls-4" transform="translate(80.71 39.94)"><tspan class="cls-5" x="0" y="0">福井</tspan><tspan class="cls-6" x="87.18" y="0">市</tspan></text>
      <g>
        <path class="cls-1" d="m104.72,39.66h-5.63v-3.87h5.63v3.87Zm0-6.26h-5.63v-3.87h5.63v3.87Zm8.87,6.26h-5.75v-3.87h5.75v3.87Zm0-6.26h-5.75v-3.87h5.75v3.87Zm-1.33-12.24h-11.81v-4.46h11.81v4.46Zm-17.24,12.16v-3.79l-4.77-4.1v-.9c2.11-3.48,3.64-7.15,4.1-10.36v-2.97h-4.14v-3.79h-3.21v3.79h-4.42v3.17h8.48c-.74,4.93-4.5,11.42-8.48,14.86v4.38c1.56-1.25,3.09-2.82,4.46-4.53v13.53h3.21v-13.57l4.77,4.3Zm21.74,8.8v-15.09h-20.8v15.09h20.8Zm-1.13-18.45v-9.46h-18.57v9.46h18.57Zm1.13-12.86v-2.7h-20.8v2.7h20.8Z"/>
        <path class="cls-1" d="m151.39,28.95h-14.89c.04-.47.04-.94.04-1.45v-10.2h14.86v11.65Zm10.01,3.4v-3.4h-6.57v-11.65h5.55v-3.4h-5.55v-6.49h-3.44v6.49h-14.86v-6.49h-3.48v6.49h-5.79v3.4h5.79v10.2c0,.51,0,.98-.04,1.45h-6.84v3.4h6.37c-.86,4.03-2.89,7.47-6.14,10.24h4.07c2.42-2.15,4.5-6.06,5.47-10.24h15.44v10.24h3.44v-10.24h6.57Z"/>
        <path class="cls-1" d="m205.04,14.29v-3.4h-15.91v-3.48h-3.4v3.48h-15.95v3.4h15.95v5.04h-14.86v22.2h3.36v-18.92h11.49v19.98h3.4v-19.98h11.41v13.99c0,.86-.7,1.48-1.53,1.48h-4.42v3.44h5.08c2.66,0,4.3-1.6,4.3-4.26v-17.94h-14.85v-5.04h15.91Z"/>
      </g>
      <g>
        <path class="cls-3" d="m81.88,53.39h6.14v2.04h-3.79v1.98h3.07v2.01h-3.07v3.55h-2.34v-9.58Z"/>
        <path class="cls-3" d="m102.54,59.27c0,2.16-1.63,3.86-4.03,3.86s-4.03-1.7-4.03-3.86v-5.87h2.36v5.68c0,1.1.66,1.83,1.67,1.83s1.67-.74,1.67-1.83v-5.68h2.36v5.87Z"/>
        <path class="cls-3" d="m115.29,53.4h2.87l-3.54,4.07,3.67,5.49h-2.8l-2.51-3.93-.84.98v2.95h-2.34v-9.57h2.34v3.72l3.15-3.72Z"/>
        <path class="cls-3" d="m132.46,59.27c0,2.16-1.63,3.86-4.03,3.86s-4.03-1.7-4.03-3.86v-5.87h2.36v5.68c0,1.1.66,1.83,1.67,1.83s1.67-.74,1.67-1.83v-5.68h2.36v5.87Z"/>
        <path class="cls-3" d="m139.71,53.4h2.36v9.57h-2.36v-9.57Z"/>
        <path class="cls-3" d="m164.82,62.43c-.63.46-1.51.7-2.56.7-2.81,0-4.93-2.08-4.93-4.88s2.17-5.02,5.02-5.02c.9,0,1.73.2,2.36.56v2.32c-.59-.43-1.37-.68-2.14-.68-1.66,0-2.8,1.13-2.8,2.76s1.17,2.72,2.75,2.72c.82,0,1.66-.28,2.3-.78v2.3Z"/>
        <path class="cls-3" d="m171.82,53.4h2.36v9.57h-2.36v-9.57Z"/>
        <path class="cls-3" d="m183.13,55.48h-2.59v-2.09h7.53v2.09h-2.59v7.49h-2.36v-7.49Z"/>
        <path class="cls-3" d="m197.38,58.78l-3.42-5.37h2.55l2.05,3.4,2.05-3.4h2.56l-3.43,5.37v4.19h-2.36v-4.19Z"/>
      </g>
      <path class="cls-2" d="m64.04,29.65l-5.55-5.55-2.37,2.37-6.49-6.49,2.37-2.37-5.55-5.55-2.37,2.37-6.5-6.49,2.37-2.37-5.55-5.55-2.37,2.37-2.37-2.37-5.55,5.55,2.37,2.37-6.49,6.49-2.37-2.37-5.55,5.55,2.37,2.37-6.5,6.49-2.37-2.37L0,29.65l2.37,2.37-2.37,2.37,5.55,5.55,2.37-2.37,6.5,6.49-2.37,2.37,5.55,5.55,2.37-2.37,6.49,6.49-2.37,2.37,5.55,5.55,2.37-2.37,2.37,2.37,5.55-5.55-2.37-2.37,6.5-6.49,2.37,2.37,5.55-5.55-2.37-2.37,6.49-6.49,2.37,2.37,5.55-5.55-2.37-2.37,2.37-2.37Zm-42.74-2.8v10.34l-1.33,1.33-6.49-6.49,6.49-6.49,1.33,1.33Zm10.72,23.71l-6.49-6.49,3.63-3.63v-16.84s-3.63-3.63-3.63-3.63l6.49-6.5,6.49,6.5-3.63,3.63v16.84l3.63,3.63-6.49,6.49Zm12.05-12.05l-1.33-1.33v-10.34l1.33-1.33,6.49,6.49-6.49,6.49Z"/>
    </g>
  </g>
</svg>